# Blender v2.76 (sub 0) OBJ File: ''
# www.blender.org

o Cube
v -0.678050 -1.115710 2.475325
v -0.678050 -1.115710 4.475325
v -2.678050 -1.115710 4.475325
v -2.678050 -1.115710 2.475325
v -0.678049 0.884290 2.475326
v -0.678051 0.884290 4.475326
v -2.678050 0.884290 4.475325
v -2.678050 0.884290 2.475325
vn 0.000000 -1.000000 0.000000
vn 0.000000 1.000000 0.000000
vn 1.000000 0.000000 0.000000
vn -0.000000 0.000000 1.000000
vn -1.000000 -0.000000 -0.000000
vn 0.000000 0.000000 -1.000000

s off
f 2//1 3//1 4//1
f 8//2 7//2 6//2
f 5//3 6//3 2//3
f 6//4 7//4 3//4
f 7//5 8//5 4//5
f 1//6 4//6 8//6
f 1//1 2//1 4//1
f 5//2 8//2 6//2
f 1//3 5//3 2//3
f 2//4 6//4 3//4
f 3//5 7//5 4//5
f 5//6 1//6 8//6
